# xmcd
# Copyright (C) 1995-1998 Ti Kan
#
# Track frame offsets:
#       150
#       33475
#       59932
#       83278
#       120477
#
# Disc length: 2256 seconds
#
# Revision: 0
# Processed by: cddbd v1.5.2PL0 Copyright (c) Steve Scherf et al.
# Submitted via: CD-Import v1.0
#
DISCID=3908ce05
DTITLE=Eno - Stea Alto
DYEAR=2008
DGENRE=
TTITLE0=Ser Roen
TTITLE1=Kelar
TTITLE2=Arelle
TTITLE3=Ne Treer
TTITLE4=Aalto
EXTD=
EXTT0=
EXTT1=
EXTT2=
EXTT3=
EXTT4=
PLAYORDER=
